<svg xmlns="http://www.w3.org/2000/svg" width="40" height="40" viewBox="0 0 30 30"><defs><linearGradient id="a" gradientUnits="userSpaceOnUse" x1="49" y1="92.667" x2="49" y2="13.14" gradientTransform="matrix(.30612 0 0 -.30612 0 31.224)"><stop offset="0" stop-color="#00efd1"/><stop offset="1" stop-color="#00acea"/></linearGradient><linearGradient id="b" gradientUnits="userSpaceOnUse" x1="49" y1="92.667" x2="49" y2="13.14" gradientTransform="matrix(.30612 0 0 -.30612 0 31.224)"><stop offset="0" stop-color="#00efd1"/><stop offset="1" stop-color="#00acea"/></linearGradient></defs><path d="M27.246 8.266h-5.45l-1.194-3.094c-.122-.367-.489-.578-.856-.578h-9.492c-.367 0-.734.242-.856.578L8.203 8.266h-5.45c-.855 0-1.53.671-1.53 1.53v15.306c0 .859.675 1.53 1.53 1.53h24.493c.856 0 1.531-.671 1.531-1.53V9.797c0-.86-.675-1.531-1.53-1.531zm-.308 16.53H3.063V10.103h5.785c.367 0 .734-.247.855-.582l1.195-3.09h8.235l1.195 3.09c.121.367.488.582.856.582h5.753zm0 0" fill="url(#a)"/><path d="M15 10.254c-3.55 0-6.46 2.91-6.46 6.46 0 3.552 2.91 6.458 6.46 6.458s6.46-2.906 6.46-6.457c0-3.55-2.91-6.461-6.46-6.461zm0 11.082c-2.54 0-4.621-2.082-4.621-4.621A4.635 4.635 0 0115 12.094a4.635 4.635 0 014.621 4.62c0 2.54-2.082 4.622-4.621 4.622zm0 0" fill="url(#b)"/></svg>