<svg xmlns="http://www.w3.org/2000/svg" width="24" height="24" viewBox="0 0 18 18"><path d="M13.066 2.336c.579 0 1.047.469 1.047 1.047 0 .582-.468 1.05-1.047 1.05H2.93a1.048 1.048 0 010-2.097h10.136zm0 0" fill="#fff"/><path d="M13.043 4.406v9.551c0 .938-.672 1.61-1.5 1.61h-7.09c-.828 0-1.5-.672-1.5-1.61V4.391h10.09zm0 0" fill="#fff"/><path d="M9.836 6.172v7.086a.374.374 0 00.75 0V6.172a.375.375 0 00-.75 0zm-4.426 0v7.086a.374.374 0 00.75 0V6.172a.375.375 0 00-.75 0zm0 0" fill="red"/><path d="M2.563 14c0 .543.199 1.055.55 1.426.348.367.832.578 1.34.578h7.09c.508 0 .992-.211 1.34-.578a2.09 2.09 0 00.55-1.426V4.766c.243-.07.465-.2.645-.375a1.431 1.431 0 00-1.012-2.442h-1.921V1.48A1.467 1.467 0 009.66 0H6.332a1.467 1.467 0 00-1.48 1.48v.47H2.93A1.446 1.446 0 001.5 3.382c.004.648.438 1.21 1.063 1.383V14zm1.89 1.254c-.64 0-1.14-.55-1.14-1.254V4.797h9.37V14c0 .703-.5 1.254-1.14 1.254h-7.09zM5.598 1.48a.72.72 0 01.215-.52.701.701 0 01.519-.21H9.66a.717.717 0 01.734.73v.47H5.599v-.47zM2.93 2.7h10.136a.679.679 0 01.477 1.152.657.657 0 01-.477.195H2.93a.672.672 0 01-.477-1.145.665.665 0 01.477-.203zm0 0" fill="#ff3c00"/><path d="M7.621 6.172v7.086a.374.374 0 00.75 0V6.172a.375.375 0 00-.75 0zm0 0" fill="#fe0000"/></svg>